<svg xmlns="http://www.w3.org/2000/svg" width="80" height="80" viewBox="0 0 512 512" style="enable-background:new 0 0 512 512" xml:space="preserve"><path d="M256 0C114.618 0 0 114.618 0 256s114.618 256 256 256 256-114.618 256-256S397.382 0 256 0zm0 469.333c-117.818 0-213.333-95.515-213.333-213.333S138.182 42.667 256 42.667 469.333 138.182 469.333 256 373.818 469.333 256 469.333z"/><path d="M376.925 135.572c-.082-.085-.152-.177-.236-.261s-.176-.154-.261-.236C345.563 104.336 303.002 85.333 256 85.333c-47.115 0-89.77 19.092-120.652 49.96-.009.009-.019.016-.028.026s-.016.019-.026.028C104.425 166.23 85.333 208.885 85.333 256s19.092 89.77 49.961 120.652c.009.009.016.019.026.028s.019.016.028.026c30.882 30.869 73.538 49.961 120.652 49.961 47.002 0 89.564-19.003 120.428-49.742.085-.082.177-.152.261-.236s.154-.176.236-.261c30.739-30.865 49.742-73.426 49.742-120.428 0-47.002-19.003-89.564-49.742-120.428zm-16.59 194.593-46.573-46.573a63.584 63.584 0 0 0 2.584-6.259h65.874a127.305 127.305 0 0 1-21.885 52.832zM129.78 277.333h65.874a63.584 63.584 0 0 0 2.584 6.259l-46.573 46.573a127.305 127.305 0 0 1-21.885-52.832zm21.885-95.498 46.573 46.573a63.584 63.584 0 0 0-2.584 6.259H129.78a127.305 127.305 0 0 1 21.885-52.832zm119.42 89.25-.036.04A21.263 21.263 0 0 1 256 277.334a21.26 21.26 0 0 1-14.958-6.126c-.042-.042-.076-.089-.119-.131s-.089-.077-.131-.119c-3.786-3.849-6.126-9.126-6.126-14.958s2.34-11.108 6.126-14.958c.042-.042.089-.076.131-.119s.077-.089.119-.131A21.258 21.258 0 0 1 256 234.666a21.266 21.266 0 0 1 15.049 6.209l.036.04.04.036c3.837 3.856 6.209 9.172 6.209 15.049s-2.372 11.192-6.209 15.049c-.013.012-.028.023-.04.036zm12.507-72.847a63.584 63.584 0 0 0-6.259-2.584V129.78a127.316 127.316 0 0 1 52.832 21.885l-46.573 46.573zm-48.925-2.584a63.584 63.584 0 0 0-6.259 2.584l-46.573-46.573a127.316 127.316 0 0 1 52.832-21.885v65.874zm-6.259 118.108a63.584 63.584 0 0 0 6.259 2.584v65.874a127.316 127.316 0 0 1-52.832-21.885l46.573-46.573zm48.925 2.584a63.584 63.584 0 0 0 6.259-2.584l46.573 46.573a127.316 127.316 0 0 1-52.832 21.885v-65.874zm39.013-81.679a63.584 63.584 0 0 0-2.584-6.259l46.573-46.573a127.316 127.316 0 0 1 21.885 52.832h-65.874z"/></svg>