<svg width="80" height="80" viewBox="0 0 24 24" data-name="Line Color" xmlns="http://www.w3.org/2000/svg" class="icon line-color"><path d="M13.5 14.5A1.5 1.5 0 1 1 12 13a1.5 1.5 0 0 1 1.5 1.5ZM12 17v-1" style="fill:none;stroke:#2ca9bc;stroke-linecap:round;stroke-linejoin:round;stroke-width:2"/><path transform="rotate(90 12 15)" style="fill:none;stroke:#000;stroke-linecap:round;stroke-linejoin:round;stroke-width:2" d="M7 8h10a1 1 0 0 1 1 1v12a1 1 0 0 1-1 1H7a1 1 0 0 1-1-1V9a1 1 0 0 1 1-1z"/><path data-name="primary" d="M16 9V7a4 4 0 0 0-4-4h0a4 4 0 0 0-4 4v2" style="fill:none;stroke:#000;stroke-linecap:round;stroke-linejoin:round;stroke-width:2"/></svg>